solid auto-kdk-case
facet normal 0 0 1
outer loop
vertex -82.16413116455078 43.22783660888672 0
vertex -75.94966125488281 3.611100673675537 0
vertex -80.42095947265625 44.5654182434082 0
endloop
endfacet
facet normal 3.6507298510452176e-8 0.052336306575607075 -0.9986295163943546
outer loop
vertex -24.57569122314453 -71.43499755859375 -13.429025650024414
vertex -65.30521392822266 -68.3114242553711 -13.265326499938965
vertex -65.70799255371094 -67.26021575927734 -13.210234642028809
endloop
endfacet
facet normal -3.3474315186515525e-9 0.05233591497991262 -0.9986295369170769
outer loop
vertex -24.57569122314453 -71.43499755859375 -13.429025650024414
vertex -65.70799255371094 -67.26021575927734 -13.210234642028809
vertex -65.59542083740234 -44.87399673461914 -12.037023544311523
endloop
endfacet
facet normal 1.724728502266668e-7 0.052336185765870666 -0.9986295227257457
outer loop
vertex -24.57569122314453 -71.43499755859375 -13.429025650024414
vertex -65.59542083740234 -44.87399673461914 -12.037023544311523
vertex -65.08161163330078 -43.721866607666016 -11.976642608642578
endloop
endfacet
facet normal -0.7406005944575239 -0.6719455033625586 0
outer loop
vertex -63.02685546875 -70.82257080078125 -13.396929740905762
vertex -65.30521392822266 -68.3114242553711 0
vertex -65.30521392822266 -68.3114242553711 -13.265326499938965
endloop
endfacet
facet normal -0.9338009220669552 -0.3577930099190092 0
outer loop
vertex -65.30521392822266 -68.3114242553711 -13.265326499938965
vertex -65.70799255371094 -67.26021575927734 0
vertex -65.70799255371094 -67.26021575927734 -13.210234642028809
endloop
endfacet
facet normal -0.4062072808781757 -0.9137809611507338 0
outer loop
vertex -61.87069320678711 -71.3365249633789 -13.42386531829834
vertex -63.02685546875 -70.82257080078125 0
vertex -63.02685546875 -70.82257080078125 -13.396929740905762
endloop
endfacet
facet normal -0.9999873567464936 0.0050285531876486924 0
outer loop
vertex -65.70799255371094 -67.26021575927734 -13.210234642028809
vertex -65.59542083740234 -44.87399673461914 0
vertex -65.59542083740234 -44.87399673461914 -12.037023544311523
endloop
endfacet
facet normal -0.913295562685894 0.40729745294840286 0
outer loop
vertex -65.59542083740234 -44.87399673461914 -12.037023544311523
vertex -65.08161163330078 -43.721866607666016 0
vertex -65.08161163330078 -43.721866607666016 -11.976642608642578
endloop
endfacet
facet normal -0.6719456108297424 0.7406004969527392 0
outer loop
vertex -65.08161163330078 -43.721866607666016 -11.976642608642578
vertex -62.574737548828125 -41.447383880615234 0
vertex -62.574737548828125 -41.447383880615234 -11.857441902160645
endloop
endfacet
facet normal -0.3601387945771938 0.9328987343975153 0
outer loop
vertex -62.574737548828125 -41.447383880615234 -11.857441902160645
vertex -61.531829833984375 -41.044776916503906 0
vertex -61.531829833984375 -41.044776916503906 -11.836341857910156
endloop
endfacet
facet normal 0 1 0
outer loop
vertex -61.531829833984375 -41.044776916503906 -11.836341857910156
vertex -57.962562561035156 -41.044776916503906 0
vertex -57.962562561035156 -41.044776916503906 -11.836341857910156
endloop
endfacet
facet normal -0.7071060137288083 0.7071075486434537 0
outer loop
vertex -57.962562561035156 -41.044776916503906 -11.836341857910156
vertex -56.2052001953125 -39.287418365478516 0
vertex -56.2052001953125 -39.287418365478516 -11.744242668151855
endloop
endfacet
facet normal -2.6607696247750625e-7 0.052335334812843706 -0.9986295673221162
outer loop
vertex -67.43155670166016 -14.38692855834961 -10.439263343811035
vertex -74.80521392822266 -11.311422348022461 -10.278082847595215
vertex -75.20799255371094 -10.260214805603027 -10.222991943359375
endloop
endfacet
facet normal 7.621732744168224e-7 0.052336957168517544 -0.9986294822974935
outer loop
vertex -65.30259704589844 -30.314313888549805 -11.273982048034668
vertex -61.897300720214844 -33.32874298095703 -11.431962013244629
vertex -63.03318405151367 -32.81559371948242 -11.405069351196289
endloop
endfacet
facet normal 1.2506391851510017e-7 0.052336239419501614 -0.9986295199138712
outer loop
vertex -65.30259704589844 -30.314313888549805 -11.273982048034668
vertex -57.93155288696289 -33.38692855834961 -11.43501091003418
vertex -61.897300720214844 -33.32874298095703 -11.431962013244629
endloop
endfacet
facet normal -2.529604780864535e-7 0.05233533504239609 -0.9986295673100892
outer loop
vertex -65.30259704589844 -30.314313888549805 -11.273982048034668
vertex -65.7052001953125 -29.271404266357422 -11.21932601928711
vertex -57.93155288696289 -33.38692855834961 -11.43501091003418
endloop
endfacet
facet normal 1.030753761433988e-7 0.052336005702114004 -0.998629532162522
outer loop
vertex -65.7052001953125 -29.271404266357422 -11.21932601928711
vertex -65.7052001953125 -16.138795852661133 -10.531074523925781
vertex -57.93155288696289 -33.38692855834961 -11.43501091003418
endloop
endfacet
facet normal -8.034997193298054e-7 0.05233559823237051 -0.9986295535167253
outer loop
vertex -65.7052001953125 -16.138795852661133 -10.531074523925781
vertex -56.2052001953125 -35.1387939453125 -11.526823043823242
vertex -57.93155288696289 -33.38692855834961 -11.43501091003418
endloop
endfacet
facet normal -4.385822036967531e-8 0.05233586613245155 -0.9986295394770597
outer loop
vertex -67.43155670166016 -14.38692855834961 -10.439263343811035
vertex -72.53318786621094 -13.815594673156738 -10.409320831298828
vertex -74.80521392822266 -11.311422348022461 -10.278082847595215
endloop
endfacet
facet normal 1.4421140503360977e-7 0.052337540869094576 -0.9986294517065653
outer loop
vertex -67.43155670166016 -14.38692855834961 -10.439263343811035
vertex -71.39730072021484 -14.328742980957031 -10.436214447021484
vertex -72.53318786621094 -13.815594673156738 -10.409320831298828
endloop
endfacet
facet normal 8.304675346280049e-8 0.0523359909043615 -0.9986295329380419
outer loop
vertex -67.43155670166016 -14.38692855834961 -10.439263343811035
vertex -75.20799255371094 -10.260214805603027 -10.222991943359375
vertex -75.1452865600586 2.2097651958465576 -9.569467544555664
endloop
endfacet
facet normal -0.7406012862952617 -0.6719447408364797 0
outer loop
vertex -72.53318786621094 -13.815594673156738 -10.409320831298828
vertex -74.80521392822266 -11.311422348022461 0
vertex -74.80521392822266 -11.311422348022461 -10.278082847595215
endloop
endfacet
facet normal -0.7405996240201461 -0.6719465729514649 0
outer loop
vertex -63.03318405151367 -32.81559371948242 -11.405069351196289
vertex -65.30259704589844 -30.314313888549805 0
vertex -65.30259704589844 -30.314313888549805 -11.273982048034668
endloop
endfacet
facet normal -0.9329001021233292 -0.3601352516184466 0
outer loop
vertex -65.30259704589844 -30.314313888549805 -11.273982048034668
vertex -65.7052001953125 -29.271404266357422 0
vertex -65.7052001953125 -29.271404266357422 -11.21932601928711
endloop
endfacet
facet normal -0.4116998002548023 -0.9113195238060885 0
outer loop
vertex -61.897300720214844 -33.32874298095703 -11.431962013244629
vertex -63.03318405151367 -32.81559371948242 0
vertex -63.03318405151367 -32.81559371948242 -11.405069351196289
endloop
endfacet
facet normal -1 0 0
outer loop
vertex -65.7052001953125 -29.271404266357422 -11.21932601928711
vertex -65.7052001953125 -29.271404266357422 0
vertex -65.7052001953125 -16.138795852661133 -10.531074523925781
endloop
endfacet
facet normal -1 0 0
outer loop
vertex -56.2052001953125 -39.287418365478516 -11.744242668151855
vertex -56.2052001953125 -35.1387939453125 0
vertex -56.2052001953125 -35.1387939453125 -11.526823043823242
endloop
endfacet
facet normal -0.7122742417944222 -0.701901278297868 0
outer loop
vertex -56.2052001953125 -35.1387939453125 -11.526823043823242
vertex -57.93155288696289 -33.38692855834961 0
vertex -57.93155288696289 -33.38692855834961 -11.43501091003418
endloop
endfacet
facet normal -0.014670452607809458 -0.9998923831194446 0
outer loop
vertex -57.93155288696289 -33.38692855834961 -11.43501091003418
vertex -61.897300720214844 -33.32874298095703 0
vertex -61.897300720214844 -33.32874298095703 -11.431962013244629
endloop
endfacet
facet normal -0.014670466716458582 -0.9998923829124419 0
outer loop
vertex -67.43155670166016 -14.38692855834961 -10.439263343811035
vertex -71.39730072021484 -14.328742980957031 0
vertex -71.39730072021484 -14.328742980957031 -10.436214447021484
endloop
endfacet
facet normal -0.4116980165313456 -0.9113203296229905 0
outer loop
vertex -71.39730072021484 -14.328742980957031 -10.436214447021484
vertex -72.53318786621094 -13.815594673156738 0
vertex -72.53318786621094 -13.815594673156738 -10.409320831298828
endloop
endfacet
facet normal -0.7122738484451407 -0.7019016774599905 0
outer loop
vertex -65.7052001953125 -16.138795852661133 -10.531074523925781
vertex -67.43155670166016 -14.38692855834961 0
vertex -67.43155670166016 -14.38692855834961 -10.439263343811035
endloop
endfacet
facet normal 1.269578899938076e-8 0.05233672314228653 -0.9986294945627869
outer loop
vertex -24.57569122314453 -71.43499755859375 -13.429025650024414
vertex -61.87069320678711 -71.3365249633789 -13.42386531829834
vertex -63.02685546875 -70.82257080078125 -13.396929740905762
endloop
endfacet
facet normal 2.8719227296622207e-8 0.0523359762289687 -0.9986295337071501
outer loop
vertex -24.57569122314453 -71.43499755859375 -13.429025650024414
vertex -65.08161163330078 -43.721866607666016 -11.976642608642578
vertex -62.574737548828125 -41.447383880615234 -11.857441902160645
endloop
endfacet
facet normal 2.0185723977652934e-7 0.052336195021264555 -0.9986295222406832
outer loop
vertex -24.57569122314453 -71.43499755859375 -13.429025650024414
vertex -62.574737548828125 -41.447383880615234 -11.857441902160645
vertex -61.531829833984375 -41.044776916503906 -11.836341857910156
endloop
endfacet
facet normal 0 0.05233595022438774 -0.998629535069993
outer loop
vertex -24.57569122314453 -71.43499755859375 -13.429025650024414
vertex -61.531829833984375 -41.044776916503906 -11.836341857910156
vertex -57.962562561035156 -41.044776916503906 -11.836341857910156
endloop
endfacet
facet normal -1.589048465856988e-8 0.05233593281482646 -0.998629535982389
outer loop
vertex -24.57569122314453 -71.43499755859375 -13.429025650024414
vertex -57.962562561035156 -41.044776916503906 -11.836341857910156
vertex -56.2052001953125 -39.287418365478516 -11.744242668151855
endloop
endfacet
facet normal -1.3112756715902154e-7 0.05233581974538526 -0.9986295419080897
outer loop
vertex -24.57569122314453 -71.43499755859375 -13.429025650024414
vertex -56.2052001953125 -39.287418365478516 -11.744242668151855
vertex -56.2052001953125 -35.1387939453125 -11.526823043823242
endloop
endfacet
facet normal -0.000001117731428769433 0.05233512700168723 -0.9986295782122959
outer loop
vertex -65.7052001953125 -16.138795852661133 -10.531074523925781
vertex -22.943267822265625 -72.7326431274414 -13.49703311920166
vertex -24.57569122314453 -71.43499755859375 -13.429025650024414
endloop
endfacet
facet normal 1.759706814786581e-7 0.05233608662622751 -0.9986295279214514
outer loop
vertex -65.7052001953125 -16.138795852661133 -10.531074523925781
vertex -24.57569122314453 -71.43499755859375 -13.429025650024414
vertex -56.2052001953125 -35.1387939453125 -11.526823043823242
endloop
endfacet
facet normal 4.4466476139496183e-10 0.052335969573924786 -0.9986295340559267
outer loop
vertex -65.7052001953125 -16.138795852661133 -10.531074523925781
vertex 34.92964553833008 -76.44477844238281 -13.691577911376953
vertex -22.943267822265625 -72.7326431274414 -13.49703311920166
endloop
endfacet
facet normal -0.0026403605503600015 -0.9999965142420069 0
outer loop
vertex -24.57569122314453 -71.43499755859375 -13.429025650024414
vertex -61.87069320678711 -71.3365249633789 0
vertex -61.87069320678711 -71.3365249633789 -13.42386531829834
endloop
endfacet
facet normal -0.6222671203199934 -0.7828049763310545 0
outer loop
vertex -22.943267822265625 -72.7326431274414 -13.49703311920166
vertex -24.57569122314453 -71.43499755859375 0
vertex -24.57569122314453 -71.43499755859375 -13.429025650024414
endloop
endfacet
facet normal -0.6212358311204991 -0.7836236610338043 0
outer loop
vertex -20.740047454833984 -76.44477844238281 -13.691577911376953
vertex -22.377660751342773 -75.14652252197266 0
vertex -22.377660751342773 -75.14652252197266 -13.623538970947266
endloop
endfacet
facet normal -0.9736293844177916 -0.22813553383511304 0
outer loop
vertex -22.377660751342773 -75.14652252197266 -13.623538970947266
vertex -22.943267822265625 -72.7326431274414 0
vertex -22.943267822265625 -72.7326431274414 -13.49703311920166
endloop
endfacet
facet normal -9.60052266671263e-9 0.05233594796215945 -0.9986295351885512
outer loop
vertex -67.43155670166016 -14.38692855834961 -10.439263343811035
vertex -75.1452865600586 2.2097651958465576 -9.569467544555664
vertex 34.92964553833008 -76.44477844238281 -13.691577911376953
endloop
endfacet
facet normal -2.6406050721602467e-7 0.05233552939324741 -0.9986295571246924
outer loop
vertex -65.7052001953125 -16.138795852661133 -10.531074523925781
vertex -67.43155670166016 -14.38692855834961 -10.439263343811035
vertex 34.92964553833008 -76.44477844238281 -13.691577911376953
endloop
endfacet
facet normal -2.4243649085991586e-7 0.05233558388958655 -0.9986295542686874
outer loop
vertex -75.1452865600586 2.2097651958465576 -9.569467544555664
vertex -75.94966125488281 3.611100673675537 -9.496026992797852
vertex 38.76804733276367 -71.44477844238281 -13.42953872680664
endloop
endfacet
facet normal -3.8316380465610285e-9 0.052335945761434965 -0.9986295353038864
outer loop
vertex -75.94966125488281 3.611100673675537 -9.496026992797852
vertex -87.26810455322266 27.777591705322266 -8.229515075683594
vertex 74.52142333984375 -71.44477844238281 -13.42953872680664
endloop
endfacet
facet normal 4.073366852008113e-7 0.05233661436588399 -0.9986295002635115
outer loop
vertex -87.26810455322266 27.777591705322266 -8.229515075683594
vertex -87.08665466308594 28.83357810974121 -8.174172401428223
vertex 74.52142333984375 -71.44477844238281 -13.42953872680664
endloop
endfacet
facet normal 4.803624239232519e-7 0.052336721019305386 -0.9986294946739339
outer loop
vertex -87.28296661376953 29.892807006835938 -8.118660926818848
vertex -87.30760955810547 30.127256393432617 -8.10637378692627
vertex 74.52142333984375 -71.44477844238281 -13.42953872680664
endloop
endfacet
facet normal -3.024405958185749e-8 0.052335909726897244 -0.998629537192375
outer loop
vertex -87.30760955810547 30.127256393432617 -8.10637378692627
vertex -87.36512756347656 32.32372283935547 -7.991261959075928
vertex 74.52142333984375 -71.44477844238281 -13.42953872680664
endloop
endfacet
facet normal -2.401619285639573e-7 0.05233557371871127 -0.998629554801717
outer loop
vertex -87.08665466308594 28.83357810974121 -8.174172401428223
vertex -87.28296661376953 29.892807006835938 -8.118660926818848
vertex 74.52142333984375 -71.44477844238281 -13.42953872680664
endloop
endfacet
facet normal 8.714512274585968e-8 0.052336092361100615 -0.9986295276209104
outer loop
vertex -87.36512756347656 32.32372283935547 -7.991261959075928
vertex -87.35279083251953 32.559139251708984 -7.97892427444458
vertex 74.52142333984375 -71.44477844238281 -13.42953872680664
endloop
endfacet
facet normal 1.354210725511088e-8 0.05233597811736597 -0.9986295336081835
outer loop
vertex -87.35279083251953 32.559139251708984 -7.97892427444458
vertex -87.06599426269531 34.7375602722168 -7.864758014678955
vertex 74.52142333984375 -71.44477844238281 -13.42953872680664
endloop
endfacet
facet normal -1.7255347847090327e-7 0.05233569569431407 -0.9986295484093
outer loop
vertex -87.06599426269531 34.7375602722168 -7.864758014678955
vertex -87.01698303222656 34.96814727783203 -7.852673530578613
vertex 74.52142333984375 -71.44477844238281 -13.42953872680664
endloop
endfacet
facet normal -0.9338009220669552 -0.35779300991900925 0
outer loop
vertex -65.70799255371094 -67.26021575927734 0
vertex -65.30521392822266 -68.3114242553711 -13.265326499938965
vertex -65.30521392822266 -68.3114242553711 0
endloop
endfacet
facet normal -0.7406005944575239 -0.6719455033625586 0
outer loop
vertex -65.30521392822266 -68.3114242553711 0
vertex -63.02685546875 -70.82257080078125 -13.396929740905762
vertex -63.02685546875 -70.82257080078125 0
endloop
endfacet
facet normal -0.40620728087817576 -0.9137809611507339 0
outer loop
vertex -63.02685546875 -70.82257080078125 0
vertex -61.87069320678711 -71.3365249633789 -13.42386531829834
vertex -61.87069320678711 -71.3365249633789 0
endloop
endfacet
facet normal -0.9999873567464936 0.0050285531876486924 0
outer loop
vertex -65.59542083740234 -44.87399673461914 0
vertex -65.70799255371094 -67.26021575927734 -13.210234642028809
vertex -65.70799255371094 -67.26021575927734 0
endloop
endfacet
facet normal -0.9132955626858938 0.4072974529484028 0
outer loop
vertex -65.08161163330078 -43.721866607666016 0
vertex -65.59542083740234 -44.87399673461914 -12.037023544311523
vertex -65.59542083740234 -44.87399673461914 0
endloop
endfacet
facet normal -0.6719456108297425 0.7406004969527393 0
outer loop
vertex -62.574737548828125 -41.447383880615234 0
vertex -65.08161163330078 -43.721866607666016 -11.976642608642578
vertex -65.08161163330078 -43.721866607666016 0
endloop
endfacet
facet normal -0.3601387945771938 0.9328987343975154 0
outer loop
vertex -61.531829833984375 -41.044776916503906 0
vertex -62.574737548828125 -41.447383880615234 -11.857441902160645
vertex -62.574737548828125 -41.447383880615234 0
endloop
endfacet
facet normal 0 1 0
outer loop
vertex -57.962562561035156 -41.044776916503906 0
vertex -61.531829833984375 -41.044776916503906 -11.836341857910156
vertex -61.531829833984375 -41.044776916503906 0
endloop
endfacet
facet normal -0.7071060137288084 0.7071075486434537 0
outer loop
vertex -56.2052001953125 -39.287418365478516 0
vertex -57.962562561035156 -41.044776916503906 -11.836341857910156
vertex -57.962562561035156 -41.044776916503906 0
endloop
endfacet
facet normal 0 0 1
outer loop
vertex -65.59542083740234 -44.87399673461914 0
vertex -65.70799255371094 -67.26021575927734 0
vertex -62.574737548828125 -41.447383880615234 0
endloop
endfacet
facet normal 0 0 1
outer loop
vertex -61.531829833984375 -41.044776916503906 0
vertex -62.574737548828125 -41.447383880615234 0
vertex -65.70799255371094 -67.26021575927734 0
endloop
endfacet
facet normal 0 0 1
outer loop
vertex -57.962562561035156 -41.044776916503906 0
vertex -61.531829833984375 -41.044776916503906 0
vertex -65.70799255371094 -67.26021575927734 0
endloop
endfacet
facet normal 0 0 1
outer loop
vertex -65.08161163330078 -43.721866607666016 0
vertex -65.59542083740234 -44.87399673461914 0
vertex -62.574737548828125 -41.447383880615234 0
endloop
endfacet
facet normal 0 0 1
outer loop
vertex -56.2052001953125 -39.287418365478516 0
vertex -57.962562561035156 -41.044776916503906 0
vertex -65.70799255371094 -67.26021575927734 0
endloop
endfacet
facet normal -0.933800813616909 -0.3577932929617307 0
outer loop
vertex -74.80521392822266 -11.311422348022461 -10.278082847595215
vertex -75.20799255371094 -10.260214805603027 0
vertex -75.20799255371094 -10.260214805603027 -10.222991943359375
endloop
endfacet
facet normal -0.9999873570516863 0.00502849249609204 0
outer loop
vertex -75.20799255371094 -10.260214805603027 -10.222991943359375
vertex -75.20799255371094 -10.260214805603027 0
vertex -75.1452865600586 2.2097651958465576 -9.569467544555664
endloop
endfacet
facet normal -0.7406012862952617 -0.6719447408364797 0
outer loop
vertex -74.80521392822266 -11.311422348022461 0
vertex -72.53318786621094 -13.815594673156738 -10.409320831298828
vertex -72.53318786621094 -13.815594673156738 0
endloop
endfacet
facet normal -0.933800813616909 -0.3577932929617307 0
outer loop
vertex -75.20799255371094 -10.260214805603027 0
vertex -74.80521392822266 -11.311422348022461 -10.278082847595215
vertex -74.80521392822266 -11.311422348022461 0
endloop
endfacet
facet normal -0.9329001021233293 -0.3601352516184466 0
outer loop
vertex -65.7052001953125 -29.271404266357422 0
vertex -65.30259704589844 -30.314313888549805 -11.273982048034668
vertex -65.30259704589844 -30.314313888549805 0
endloop
endfacet
facet normal -0.7405996240201461 -0.6719465729514648 0
outer loop
vertex -65.30259704589844 -30.314313888549805 0
vertex -63.03318405151367 -32.81559371948242 -11.405069351196289
vertex -63.03318405151367 -32.81559371948242 0
endloop
endfacet
facet normal -0.41169980025480235 -0.9113195238060885 0
outer loop
vertex -63.03318405151367 -32.81559371948242 0
vertex -61.897300720214844 -33.32874298095703 -11.431962013244629
vertex -61.897300720214844 -33.32874298095703 0
endloop
endfacet
facet normal -1 0 0
outer loop
vertex -65.7052001953125 -16.138795852661133 0
vertex -65.7052001953125 -16.138795852661133 -10.531074523925781
vertex -65.7052001953125 -29.271404266357422 0
endloop
endfacet
facet normal -0.7122742417944221 -0.7019012782978679 0
outer loop
vertex -57.93155288696289 -33.38692855834961 0
vertex -56.2052001953125 -35.1387939453125 -11.526823043823242
vertex -56.2052001953125 -35.1387939453125 0
endloop
endfacet
facet normal -0.014670452607809456 -0.9998923831194445 0
outer loop
vertex -61.897300720214844 -33.32874298095703 0
vertex -57.93155288696289 -33.38692855834961 -11.43501091003418
vertex -57.93155288696289 -33.38692855834961 0
endloop
endfacet
facet normal -1 0 0
outer loop
vertex -56.2052001953125 -35.1387939453125 0
vertex -56.2052001953125 -39.287418365478516 -11.744242668151855
vertex -56.2052001953125 -39.287418365478516 0
endloop
endfacet
facet normal -0.01467046671645858 -0.9998923829124418 0
outer loop
vertex -71.39730072021484 -14.328742980957031 0
vertex -67.43155670166016 -14.38692855834961 -10.439263343811035
vertex -67.43155670166016 -14.38692855834961 0
endloop
endfacet
facet normal -0.4116980165313456 -0.9113203296229904 0
outer loop
vertex -72.53318786621094 -13.815594673156738 0
vertex -71.39730072021484 -14.328742980957031 -10.436214447021484
vertex -71.39730072021484 -14.328742980957031 0
endloop
endfacet
facet normal -0.7122738484451409 -0.7019016774599905 0
outer loop
vertex -67.43155670166016 -14.38692855834961 0
vertex -65.7052001953125 -16.138795852661133 -10.531074523925781
vertex -65.7052001953125 -16.138795852661133 0
endloop
endfacet
facet normal -0.9999873570516863 0.005028492496092041 0
outer loop
vertex -75.1452865600586 2.2097651958465576 0
vertex -75.1452865600586 2.2097651958465576 -9.569467544555664
vertex -75.20799255371094 -10.260214805603027 0
endloop
endfacet
facet normal -0.0026403605503600015 -0.9999965142420069 0
outer loop
vertex -61.87069320678711 -71.3365249633789 0
vertex -24.57569122314453 -71.43499755859375 -13.429025650024414
vertex -24.57569122314453 -71.43499755859375 0
endloop
endfacet
facet normal -0.9736293844177917 -0.22813553383511306 0
outer loop
vertex -22.943267822265625 -72.7326431274414 0
vertex -22.377660751342773 -75.14652252197266 -13.623538970947266
vertex -22.377660751342773 -75.14652252197266 0
endloop
endfacet
facet normal -0.6212358311204991 -0.7836236610338043 0
outer loop
vertex -22.377660751342773 -75.14652252197266 0
vertex -20.740047454833984 -76.44477844238281 -13.691577911376953
vertex -20.740047454833984 -76.44477844238281 0
endloop
endfacet
facet normal -0.6222671203199934 -0.7828049763310545 0
outer loop
vertex -24.57569122314453 -71.43499755859375 0
vertex -22.943267822265625 -72.7326431274414 -13.49703311920166
vertex -22.943267822265625 -72.7326431274414 0
endloop
endfacet
facet normal 0 0 1
outer loop
vertex -65.70799255371094 -67.26021575927734 0
vertex -65.30521392822266 -68.3114242553711 0
vertex 40.69479751586914 17.699617385864258 0
endloop
endfacet
facet normal 0 0 1
outer loop
vertex -63.02685546875 -70.82257080078125 0
vertex -61.87069320678711 -71.3365249633789 0
vertex 40.69479751586914 17.699617385864258 0
endloop
endfacet
facet normal 0 0 1
outer loop
vertex 40.69479751586914 17.699617385864258 0
vertex -65.30521392822266 -68.3114242553711 0
vertex -63.02685546875 -70.82257080078125 0
endloop
endfacet
facet normal 0 0 1
outer loop
vertex 40.69479751586914 17.699617385864258 0
vertex -61.87069320678711 -71.3365249633789 0
vertex -24.57569122314453 -71.43499755859375 0
endloop
endfacet
facet normal 0 0 1
outer loop
vertex -56.2052001953125 -39.287418365478516 0
vertex -65.70799255371094 -67.26021575927734 0
vertex -5.874598979949951 58.59096908569336 0
endloop
endfacet
facet normal 0 0 1
outer loop
vertex -65.7052001953125 -29.271404266357422 0
vertex -65.30259704589844 -30.314313888549805 0
vertex -5.874598979949951 58.59096908569336 0
endloop
endfacet
facet normal 0 0 1
outer loop
vertex -63.03318405151367 -32.81559371948242 0
vertex -61.897300720214844 -33.32874298095703 0
vertex -5.874598979949951 58.59096908569336 0
endloop
endfacet
facet normal 0 0 1
outer loop
vertex -5.874598979949951 58.59096908569336 0
vertex -65.30259704589844 -30.314313888549805 0
vertex -63.03318405151367 -32.81559371948242 0
endloop
endfacet
facet normal 0 0 1
outer loop
vertex -5.874598979949951 58.59096908569336 0
vertex -61.897300720214844 -33.32874298095703 0
vertex -57.93155288696289 -33.38692855834961 0
endloop
endfacet
facet normal 0 0 1
outer loop
vertex -56.2052001953125 -35.1387939453125 0
vertex -56.2052001953125 -39.287418365478516 0
vertex -5.874598979949951 58.59096908569336 0
endloop
endfacet
facet normal 0 0 1
outer loop
vertex -5.874598979949951 58.59096908569336 0
vertex -57.93155288696289 -33.38692855834961 0
vertex -56.2052001953125 -35.1387939453125 0
endloop
endfacet
facet normal 1.973707958504064e-7 0.05233629333609424 -0.9986295170881939
outer loop
vertex -75.94966125488281 3.611100673675537 -9.496026992797852
vertex -93.38097381591797 13.67507553100586 -8.968596458435059
vertex -94.02420806884766 16.075672149658203 -8.842785835266113
endloop
endfacet
facet normal -6.16596369570983e-8 0.052335918751714894 -0.9986295367194032
outer loop
vertex -75.94966125488281 3.611100673675537 -9.496026992797852
vertex -94.02420806884766 16.075672149658203 -8.842785835266113
vertex -87.26810455322266 27.777591705322266 -8.229515075683594
endloop
endfacet
facet normal -6.700867712630587e-8 0.05233585547602805 -0.9986295400355368
outer loop
vertex -87.01698303222656 34.96814727783203 -7.852673530578613
vertex -86.39293670654297 37.074886322021484 -7.742264270782471
vertex 74.52142333984375 -71.44477844238281 -13.42953872680664
endloop
endfacet
facet normal 5.849963663139607e-7 0.0523368196293768 -0.9986294895058626
outer loop
vertex -86.39293670654297 37.074886322021484 -7.742264270782471
vertex -86.30845642089844 37.29496765136719 -7.730730056762695
vertex 74.52142333984375 -71.44477844238281 -13.42953872680664
endloop
endfacet
facet normal -2.6272568735445966e-8 0.052335918017660105 -0.9986295367578749
outer loop
vertex -86.30845642089844 37.29496765136719 -7.730730056762695
vertex -85.36253356933594 39.27814483642578 -7.626796245574951
vertex 74.52142333984375 -71.44477844238281 -13.42953872680664
endloop
endfacet
facet normal -8.779432867311245e-8 0.05233582942353768 -0.9986295414008853
outer loop
vertex -85.36253356933594 39.27814483642578 -7.626796245574951
vertex -85.24465942382812 39.4822998046875 -7.6160969734191895
vertex 74.52142333984375 -71.44477844238281 -13.42953872680664
endloop
endfacet
facet normal -4.072204732443439e-8 0.05233589703511621 -0.9986295378575222
outer loop
vertex -85.24465942382812 39.4822998046875 -7.6160969734191895
vertex -84.0001449584961 41.293087005615234 -7.52119779586792
vertex 74.52142333984375 -71.44477844238281 -13.42953872680664
endloop
endfacet
facet normal 6.014357351961704e-7 0.05233679750481251 -0.9986294906653711
outer loop
vertex -84.0001449584961 41.293087005615234 -7.52119779586792
vertex -83.8517837524414 41.47629165649414 -7.511596202850342
vertex 74.52142333984375 -71.44477844238281 -13.42953872680664
endloop
endfacet
facet normal -8.849294684856561e-8 0.05233583252167023 -0.9986295412385195
outer loop
vertex -83.8517837524414 41.47629165649414 -7.511596202850342
vertex -82.33931732177734 43.070098876953125 -7.4280686378479
vertex 74.52142333984375 -71.44477844238281 -13.42953872680664
endloop
endfacet
facet normal 6.177325023350395e-7 0.05233679724884656 -0.998629490678776
outer loop
vertex -82.33931732177734 43.070098876953125 -7.4280686378479
vertex -82.16413116455078 43.22783660888672 -7.419801712036133
vertex 74.52142333984375 -71.44477844238281 -13.42953872680664
endloop
endfacet
facet normal 4.1541353735289824e-8 0.05233601211333354 -0.9986295318265285
outer loop
vertex -82.16413116455078 43.22783660888672 -7.419801712036133
vertex -80.42095947265625 44.5654182434082 -7.349701881408691
vertex 74.52142333984375 -71.44477844238281 -13.42953872680664
endloop
endfacet
facet normal -6.815653742802068e-7 0.052335048982475506 -0.9986295823014343
outer loop
vertex -80.42095947265625 44.5654182434082 -7.349701881408691
vertex -80.22325134277344 44.69381332397461 -7.342973232269287
vertex 74.52142333984375 -71.44477844238281 -13.42953872680664
endloop
endfacet
facet normal 6.186173980387855e-8 0.052336036821958455 -0.9986295305316014
outer loop
vertex -80.22325134277344 44.69381332397461 -7.342973232269287
vertex -77.10414123535156 46.38735580444336 -7.254218101501465
vertex 74.52142333984375 -71.44477844238281 -13.42953872680664
endloop
endfacet
facet normal 3.9429033592942603e-7 0.052336447377365855 -0.9986295090151106
outer loop
vertex -76.52076721191406 49.075260162353516 -7.113351345062256
vertex -78.01956176757812 51.063541412353516 -7.009149551391602
vertex 74.52142333984375 -71.44477844238281 -13.42953872680664
endloop
endfacet
facet normal -8.525985430620459e-8 0.052335848025465766 -0.998629540426002
outer loop
vertex -77.10414123535156 46.38735580444336 -7.254218101501465
vertex -76.52076721191406 49.075260162353516 -7.113351345062256
vertex 74.52142333984375 -71.44477844238281 -13.42953872680664
endloop
endfacet
facet normal -3.274132520067724e-8 0.052335917116174906 -0.9986295368051197
outer loop
vertex -78.01956176757812 51.063541412353516 -7.009149551391602
vertex -78.79698944091797 54.36198425292969 -6.836285591125488
vertex 74.52142333984375 -71.44477844238281 -13.42953872680664
endloop
endfacet
facet normal -1.1263695486011085e-7 0.05233582001551817 -0.998629541893935
outer loop
vertex -78.79698944091797 54.36198425292969 -6.836285591125488
vertex -78.64049530029297 55.476783752441406 -6.777861595153809
vertex 74.52142333984375 -71.44477844238281 -13.42953872680664
endloop
endfacet
facet normal -5.5994470911537315e-9 0.05233595217432564 -0.998629534967801
outer loop
vertex 78.58736419677734 -67.60743713378906 -13.228432655334473
vertex -78.64049530029297 55.476783752441406 -6.777861595153809
vertex -67.7042465209961 75.01022338867188 -5.754157543182373
endloop
endfacet
facet normal 2.181856235857343e-7 0.05233618109553493 -0.9986295229704997
outer loop
vertex 78.58736419677734 -67.60743713378906 -13.228432655334473
vertex -67.7042465209961 75.01022338867188 -5.754157543182373
vertex -66.69688415527344 75.76958465576172 -5.71436071395874
endloop
endfacet
facet normal 3.0941577686499107e-9 0.052335963739870636 -0.9986295343616765
outer loop
vertex 78.58736419677734 -67.60743713378906 -13.228432655334473
vertex -66.69688415527344 75.76958465576172 -5.71436071395874
vertex -63.3984375 76.54700469970703 -5.673617839813232
endloop
endfacet
facet normal -1.1478505183754175e-8 0.05233594942575168 -0.9986295351118476
outer loop
vertex 78.58736419677734 -67.60743713378906 -13.228432655334473
vertex -63.3984375 76.54700469970703 -5.673617839813232
vertex -62.28363800048828 76.39051818847656 -5.681818962097168
endloop
endfacet
facet normal 7.076712829488854e-9 0.05233596752831824 -0.9986295341631324
outer loop
vertex 78.58736419677734 -67.60743713378906 -13.228432655334473
vertex -62.28363800048828 76.39051818847656 -5.681818962097168
vertex -40.964168548583984 60.09095001220703 -6.536043167114258
endloop
endfacet
facet normal 1.1212590106007468e-8 0.05233596806073247 -0.9986295341352297
outer loop
vertex -39.33949279785156 58.796546936035156 -6.603880405426025
vertex -2.055201530456543 54.52827072143555 -6.827570915222168
vertex -2.055201530456543 36.701133728027344 -7.761851787567139
endloop
endfacet
facet normal -0.5000000692279297 -0.8660253638156711 0
outer loop
vertex -75.94966125488281 3.611100673675537 -9.496026992797852
vertex -93.38097381591797 13.67507553100586 0
vertex -93.38097381591797 13.67507553100586 -8.968596458435059
endloop
endfacet
facet normal -0.9659261957023717 -0.25881766642936765 0
outer loop
vertex -93.38097381591797 13.67507553100586 -8.968596458435059
vertex -94.02420806884766 16.075672149658203 0
vertex -94.02420806884766 16.075672149658203 -8.842785835266113
endloop
endfacet
facet normal -0.8672786616099697 -0.49782298371611927 0
outer loop
vertex -75.1452865600586 2.2097651958465576 -9.569467544555664
vertex -75.94966125488281 3.611100673675537 0
vertex -75.94966125488281 3.611100673675537 -9.496026992797852
endloop
endfacet
facet normal -0.8660254963933742 0.49999983959658406 0
outer loop
vertex -94.02420806884766 16.075672149658203 -8.842785835266113
vertex -87.26810455322266 27.777591705322266 0
vertex -87.26810455322266 27.777591705322266 -8.229515075683594
endloop
endfacet
facet normal -0.9855563332846237 0.16934790793679083 0
outer loop
vertex -87.26810455322266 27.777591705322266 -8.229515075683594
vertex -87.08665466308594 28.83357810974121 0
vertex -87.08665466308594 28.83357810974121 -8.174172401428223
endloop
endfacet
facet normal -0.9945213128914443 -0.10453400501596548 0
outer loop
vertex -87.28296661376953 29.892807006835938 -8.118660926818848
vertex -87.30760955810547 30.127256393432617 0
vertex -87.30760955810547 30.127256393432617 -8.10637378692627
endloop
endfacet
facet normal -0.9832556596203527 -0.18223146771220777 0
outer loop
vertex -87.08665466308594 28.83357810974121 -8.174172401428223
vertex -87.28296661376953 29.892807006835938 0
vertex -87.28296661376953 29.892807006835938 -8.118660926818848
endloop
endfacet
facet normal -0.9996573070241335 -0.026177633836108594 0
outer loop
vertex -87.30760955810547 30.127256393432617 -8.10637378692627
vertex -87.36512756347656 32.32372283935547 0
vertex -87.36512756347656 32.32372283935547 -7.991261959075928
endloop
endfacet
facet normal -0.99862973880748 0.05233206253631147 0
outer loop
vertex -87.36512756347656 32.32372283935547 -7.991261959075928
vertex -87.35279083251953 32.559139251708984 0
vertex -87.35279083251953 32.559139251708984 -7.97892427444458
endloop
endfacet
facet normal -0.9914447434806735 0.1305270877042062 0
outer loop
vertex -87.35279083251953 32.559139251708984 -7.97892427444458
vertex -87.06599426269531 34.7375602722168 0
vertex -87.06599426269531 34.7375602722168 -7.864758014678955
endloop
endfacet
facet normal -0.9781489384058193 0.20790539746617642 0
outer loop
vertex -87.06599426269531 34.7375602722168 -7.864758014678955
vertex -87.01698303222656 34.96814727783203 0
vertex -87.01698303222656 34.96814727783203 -7.852673530578613
endloop
endfacet
facet normal -0.9588195129652358 0.28401609383467646 0
outer loop
vertex -87.01698303222656 34.96814727783203 -7.852673530578613
vertex -86.39293670654297 37.074886322021484 0
vertex -86.39293670654297 37.074886322021484 -7.742264270782471
endloop
endfacet
facet normal -0.9335818761872866 0.3583641729506812 0
outer loop
vertex -86.39293670654297 37.074886322021484 -7.742264270782471
vertex -86.30845642089844 37.29496765136719 0
vertex -86.30845642089844 37.29496765136719 -7.730730056762695
endloop
endfacet
facet normal -0.9659261957023717 -0.25881766642936765 0
outer loop
vertex -94.02420806884766 16.075672149658203 0
vertex -93.38097381591797 13.67507553100586 -8.968596458435059
vertex -93.38097381591797 13.67507553100586 0
endloop
endfacet
facet normal -0.5000000692279297 -0.8660253638156711 0
outer loop
vertex -93.38097381591797 13.67507553100586 0
vertex -75.94966125488281 3.611100673675537 -9.496026992797852
vertex -75.94966125488281 3.611100673675537 0
endloop
endfacet
facet normal -0.8672786616099697 -0.49782298371611927 0
outer loop
vertex -75.94966125488281 3.611100673675537 0
vertex -75.1452865600586 2.2097651958465576 -9.569467544555664
vertex -75.1452865600586 2.2097651958465576 0
endloop
endfacet
facet normal 0 0 1
outer loop
vertex -94.02420806884766 16.075672149658203 0
vertex -93.38097381591797 13.67507553100586 0
vertex -75.94966125488281 3.611100673675537 0
endloop
endfacet
facet normal 0 0 1
outer loop
vertex -87.26810455322266 27.777591705322266 0
vertex -94.02420806884766 16.075672149658203 0
vertex -75.94966125488281 3.611100673675537 0
endloop
endfacet
facet normal -0.8660254963933742 0.49999983959658406 0
outer loop
vertex -87.26810455322266 27.777591705322266 0
vertex -94.02420806884766 16.075672149658203 -8.842785835266113
vertex -94.02420806884766 16.075672149658203 0
endloop
endfacet
facet normal -0.9855563332846236 0.16934790793679083 0
outer loop
vertex -87.08665466308594 28.83357810974121 0
vertex -87.26810455322266 27.777591705322266 -8.229515075683594
vertex -87.26810455322266 27.777591705322266 0
endloop
endfacet
facet normal -0.9945213128914443 -0.10453400501596548 0
outer loop
vertex -87.30760955810547 30.127256393432617 0
vertex -87.28296661376953 29.892807006835938 -8.118660926818848
vertex -87.28296661376953 29.892807006835938 0
endloop
endfacet
facet normal -0.9996573070241335 -0.02617763383610859 0
outer loop
vertex -87.36512756347656 32.32372283935547 0
vertex -87.30760955810547 30.127256393432617 -8.10637378692627
vertex -87.30760955810547 30.127256393432617 0
endloop
endfacet
facet normal -0.9832556596203526 -0.18223146771220775 0
outer loop
vertex -87.28296661376953 29.892807006835938 0
vertex -87.08665466308594 28.83357810974121 -8.174172401428223
vertex -87.08665466308594 28.83357810974121 0
endloop
endfacet
facet normal -0.99862973880748 0.05233206253631148 0
outer loop
vertex -87.35279083251953 32.559139251708984 0
vertex -87.36512756347656 32.32372283935547 -7.991261959075928
vertex -87.36512756347656 32.32372283935547 0
endloop
endfacet
facet normal -0.9914447434806736 0.1305270877042062 0
outer loop
vertex -87.06599426269531 34.7375602722168 0
vertex -87.35279083251953 32.559139251708984 -7.97892427444458
vertex -87.35279083251953 32.559139251708984 0
endloop
endfacet
facet normal -0.9781489384058193 0.20790539746617642 0
outer loop
vertex -87.01698303222656 34.96814727783203 0
vertex -87.06599426269531 34.7375602722168 -7.864758014678955
vertex -87.06599426269531 34.7375602722168 0
endloop
endfacet
facet normal -0.958819512965236 0.2840160938346765 0
outer loop
vertex -86.39293670654297 37.074886322021484 0
vertex -87.01698303222656 34.96814727783203 -7.852673530578613
vertex -87.01698303222656 34.96814727783203 0
endloop
endfacet
facet normal -0.9335818761872866 0.3583641729506812 0
outer loop
vertex -86.30845642089844 37.29496765136719 0
vertex -86.39293670654297 37.074886322021484 -7.742264270782471
vertex -86.39293670654297 37.074886322021484 0
endloop
endfacet
facet normal -0.9025860169787393 0.43050956081654546 0
outer loop
vertex -85.36253356933594 39.27814483642578 0
vertex -86.30845642089844 37.29496765136719 -7.730730056762695
vertex -86.30845642089844 37.29496765136719 0
endloop
endfacet
facet normal 0 0 1
outer loop
vertex -87.08665466308594 28.83357810974121 0
vertex -87.26810455322266 27.777591705322266 0
vertex -75.94966125488281 3.611100673675537 0
endloop
endfacet
facet normal 0 0 1
outer loop
vertex -87.08665466308594 28.83357810974121 0
vertex -75.94966125488281 3.611100673675537 0
vertex -87.28296661376953 29.892807006835938 0
endloop
endfacet
facet normal 0 0 1
outer loop
vertex -87.30760955810547 30.127256393432617 0
vertex -87.28296661376953 29.892807006835938 0
vertex -75.94966125488281 3.611100673675537 0
endloop
endfacet
facet normal 0 0 1
outer loop
vertex -87.36512756347656 32.32372283935547 0
vertex -87.30760955810547 30.127256393432617 0
vertex -75.94966125488281 3.611100673675537 0
endloop
endfacet
facet normal 0 0 1
outer loop
vertex -87.35279083251953 32.559139251708984 0
vertex -87.36512756347656 32.32372283935547 0
vertex -75.94966125488281 3.611100673675537 0
endloop
endfacet
facet normal 0 0 1
outer loop
vertex -87.06599426269531 34.7375602722168 0
vertex -87.35279083251953 32.559139251708984 0
vertex -75.94966125488281 3.611100673675537 0
endloop
endfacet
facet normal 0 0 1
outer loop
vertex -87.01698303222656 34.96814727783203 0
vertex -87.06599426269531 34.7375602722168 0
vertex -75.94966125488281 3.611100673675537 0
endloop
endfacet
facet normal 0 0 1
outer loop
vertex -86.39293670654297 37.074886322021484 0
vertex -87.01698303222656 34.96814727783203 0
vertex -75.94966125488281 3.611100673675537 0
endloop
endfacet
facet normal 0 0 1
outer loop
vertex -86.30845642089844 37.29496765136719 0
vertex -86.39293670654297 37.074886322021484 0
vertex -75.94966125488281 3.611100673675537 0
endloop
endfacet
facet normal 0 0 1
outer loop
vertex -85.36253356933594 39.27814483642578 0
vertex -86.30845642089844 37.29496765136719 0
vertex -75.94966125488281 3.611100673675537 0
endloop
endfacet
facet normal 0 0 1
outer loop
vertex -85.36253356933594 39.27814483642578 0
vertex -75.94966125488281 3.611100673675537 0
vertex -85.24465942382812 39.4822998046875 0
endloop
endfacet
facet normal 0 0 1
outer loop
vertex -85.24465942382812 39.4822998046875 0
vertex -75.94966125488281 3.611100673675537 0
vertex -84.0001449584961 41.293087005615234 0
endloop
endfacet
facet normal 0 0 1
outer loop
vertex -84.0001449584961 41.293087005615234 0
vertex -75.94966125488281 3.611100673675537 0
vertex -83.8517837524414 41.47629165649414 0
endloop
endfacet
facet normal 0 0 1
outer loop
vertex -83.8517837524414 41.47629165649414 0
vertex -75.94966125488281 3.611100673675537 0
vertex -82.33931732177734 43.070098876953125 0
endloop
endfacet
facet normal 0 0 1
outer loop
vertex -82.33931732177734 43.070098876953125 0
vertex -75.94966125488281 3.611100673675537 0
vertex -82.16413116455078 43.22783660888672 0
endloop
endfacet
facet normal -1.9426880412791976e-9 0.05233580658410416 -0.9986295425978501
outer loop
vertex -24.57569122314453 -71.43499755859375 -13.429025650024414
vertex -63.02685546875 -70.82257080078125 -13.396929740905762
vertex -65.30521392822266 -68.3114242553711 -13.265326499938965
endloop
endfacet
facet normal 0 0 1
outer loop
vertex -80.42095947265625 44.5654182434082 0
vertex -75.94966125488281 3.611100673675537 0
vertex -80.22325134277344 44.69381332397461 0
endloop
endfacet
facet normal 0 0 1
outer loop
vertex -80.22325134277344 44.69381332397461 0
vertex -75.94966125488281 3.611100673675537 0
vertex -77.10414123535156 46.38735580444336 0
endloop
endfacet
facet normal 0 0 1
outer loop
vertex -74.80521392822266 -11.311422348022461 0
vertex -72.53318786621094 -13.815594673156738 0
vertex -39.33949279785156 58.796546936035156 0
endloop
endfacet
facet normal 0 0 1
outer loop
vertex -75.20799255371094 -10.260214805603027 0
vertex -74.80521392822266 -11.311422348022461 0
vertex -39.33949279785156 58.796546936035156 0
endloop
endfacet
facet normal 0 0 1
outer loop
vertex -75.1452865600586 2.2097651958465576 0
vertex -75.20799255371094 -10.260214805603027 0
vertex -39.33949279785156 58.796546936035156 0
endloop
endfacet
facet normal 0 0 1
outer loop
vertex -39.33949279785156 58.796546936035156 0
vertex -72.53318786621094 -13.815594673156738 0
vertex -71.39730072021484 -14.328742980957031 0
endloop
endfacet
facet normal 0 0 1
outer loop
vertex -39.33949279785156 58.796546936035156 0
vertex -71.39730072021484 -14.328742980957031 0
vertex -67.43155670166016 -14.38692855834961 0
endloop
endfacet
facet normal 0 0 1
outer loop
vertex -75.94966125488281 3.611100673675537 0
vertex -75.1452865600586 2.2097651958465576 0
vertex -39.33949279785156 58.796546936035156 0
endloop
endfacet
facet normal 0 0 1
outer loop
vertex -77.10414123535156 46.38735580444336 0
vertex -75.94966125488281 3.611100673675537 0
vertex -39.33949279785156 58.796546936035156 0
endloop
endfacet
facet normal -0.9025860169787393 0.43050956081654546 0
outer loop
vertex -86.30845642089844 37.29496765136719 -7.730730056762695
vertex -85.36253356933594 39.27814483642578 0
vertex -85.36253356933594 39.27814483642578 -7.626796245574951
endloop
endfacet
facet normal -0.8660158161147544 0.5000166059633379 0
outer loop
vertex -85.36253356933594 39.27814483642578 -7.626796245574951
vertex -85.24465942382812 39.4822998046875 0
vertex -85.24465942382812 39.4822998046875 -7.6160969734191895
endloop
endfacet
facet normal -0.8241272716586897 0.5664046610934663 0
outer loop
vertex -85.24465942382812 39.4822998046875 -7.6160969734191895
vertex -84.0001449584961 41.293087005615234 0
vertex -84.0001449584961 41.293087005615234 -7.52119779586792
endloop
endfacet
facet normal -0.77713557804127 0.6293332132840768 0
outer loop
vertex -84.0001449584961 41.293087005615234 -7.52119779586792
vertex -83.8517837524414 41.47629165649414 0
vertex -83.8517837524414 41.47629165649414 -7.511596202850342
endloop
endfacet
facet normal -0.7253744045827496 0.6883545403178666 0
outer loop
vertex -83.8517837524414 41.47629165649414 -7.511596202850342
vertex -82.33931732177734 43.070098876953125 0
vertex -82.33931732177734 43.070098876953125 -7.4280686378479
endloop
endfacet
facet normal -0.6691292182036147 0.743146075375642 0
outer loop
vertex -82.33931732177734 43.070098876953125 -7.4280686378479
vertex -82.16413116455078 43.22783660888672 0
vertex -82.16413116455078 43.22783660888672 -7.419801712036133
endloop
endfacet
facet normal -0.608761128414649 0.7933535709450884 0
outer loop
vertex -82.16413116455078 43.22783660888672 -7.419801712036133
vertex -80.42095947265625 44.5654182434082 0
vertex -80.42095947265625 44.5654182434082 -7.349701881408691
endloop
endfacet
facet normal -0.5446447629631113 0.8386668481446351 0
outer loop
vertex -80.42095947265625 44.5654182434082 -7.349701881408691
vertex -80.22325134277344 44.69381332397461 0
vertex -80.22325134277344 44.69381332397461 -7.342973232269287
endloop
endfacet
facet normal -0.4771596023485213 0.8788166554444681 0
outer loop
vertex -80.22325134277344 44.69381332397461 -7.342973232269287
vertex -77.10414123535156 46.38735580444336 0
vertex -77.10414123535156 46.38735580444336 -7.254218101501465
endloop
endfacet
facet normal -0.9733300264675496 -0.22940937116142246 0
outer loop
vertex -78.01956176757812 51.063541412353516 -7.009149551391602
vertex -78.79698944091797 54.36198425292969 0
vertex -78.79698944091797 54.36198425292969 -6.836285591125488
endloop
endfacet
facet normal -0.990290180029598 0.13901568018373459 0
outer loop
vertex -78.79698944091797 54.36198425292969 -6.836285591125488
vertex -78.64049530029297 55.476783752441406 0
vertex -78.64049530029297 55.476783752441406 -6.777861595153809
endloop
endfacet
facet normal -0.977248232440803 0.21209877932540347 0
outer loop
vertex -77.10414123535156 46.38735580444336 -7.254218101501465
vertex -76.52076721191406 49.075260162353516 0
vertex -76.52076721191406 49.075260162353516 -7.113351345062256
endloop
endfacet
facet normal -0.798535669550394 -0.6019474931052573 0
outer loop
vertex -76.52076721191406 49.075260162353516 -7.113351345062256
vertex -78.01956176757812 51.063541412353516 0
vertex -78.01956176757812 51.063541412353516 -7.009149551391602
endloop
endfacet
facet normal -0.8725531896281575 0.4885191206797627 0
outer loop
vertex -78.64049530029297 55.476783752441406 -6.777861595153809
vertex -67.7042465209961 75.01022338867188 0
vertex -67.7042465209961 75.01022338867188 -5.754157543182373
endloop
endfacet
facet normal -0.6019461050315715 0.7985367158980983 0
outer loop
vertex -67.7042465209961 75.01022338867188 -5.754157543182373
vertex -66.69688415527344 75.76958465576172 0
vertex -66.69688415527344 75.76958465576172 -5.71436071395874
endloop
endfacet
facet normal -0.22940698695431347 0.9733305884110205 0
outer loop
vertex -66.69688415527344 75.76958465576172 -5.71436071395874
vertex -63.3984375 76.54700469970703 0
vertex -63.3984375 76.54700469970703 -5.673617839813232
endloop
endfacet
facet normal 0.13900903386231925 0.9902911130090306 0
outer loop
vertex -63.3984375 76.54700469970703 -5.673617839813232
vertex -62.28363800048828 76.39051818847656 0
vertex -62.28363800048828 76.39051818847656 -5.681818962097168
endloop
endfacet
facet normal -0.8660158161147545 0.5000166059633379 0
outer loop
vertex -85.24465942382812 39.4822998046875 0
vertex -85.36253356933594 39.27814483642578 -7.626796245574951
vertex -85.36253356933594 39.27814483642578 0
endloop
endfacet
facet normal -0.8241272716586896 0.5664046610934662 0
outer loop
vertex -84.0001449584961 41.293087005615234 0
vertex -85.24465942382812 39.4822998046875 -7.6160969734191895
vertex -85.24465942382812 39.4822998046875 0
endloop
endfacet
facet normal -0.7771355780412699 0.6293332132840767 0
outer loop
vertex -83.8517837524414 41.47629165649414 0
vertex -84.0001449584961 41.293087005615234 -7.52119779586792
vertex -84.0001449584961 41.293087005615234 0
endloop
endfacet
facet normal -0.7253744045827497 0.6883545403178667 0
outer loop
vertex -82.33931732177734 43.070098876953125 0
vertex -83.8517837524414 41.47629165649414 -7.511596202850342
vertex -83.8517837524414 41.47629165649414 0
endloop
endfacet
facet normal -0.6691292182036146 0.743146075375642 0
outer loop
vertex -82.16413116455078 43.22783660888672 0
vertex -82.33931732177734 43.070098876953125 -7.4280686378479
vertex -82.33931732177734 43.070098876953125 0
endloop
endfacet
facet normal -0.608761128414649 0.7933535709450884 0
outer loop
vertex -80.42095947265625 44.5654182434082 0
vertex -82.16413116455078 43.22783660888672 -7.419801712036133
vertex -82.16413116455078 43.22783660888672 0
endloop
endfacet
facet normal -0.5446447629631113 0.8386668481446351 0
outer loop
vertex -80.22325134277344 44.69381332397461 0
vertex -80.42095947265625 44.5654182434082 -7.349701881408691
vertex -80.42095947265625 44.5654182434082 0
endloop
endfacet
facet normal -0.47715960234852123 0.8788166554444681 0
outer loop
vertex -77.10414123535156 46.38735580444336 0
vertex -80.22325134277344 44.69381332397461 -7.342973232269287
vertex -80.22325134277344 44.69381332397461 0
endloop
endfacet
facet normal -0.977248232440803 0.21209877932540347 0
outer loop
vertex -76.52076721191406 49.075260162353516 0
vertex -77.10414123535156 46.38735580444336 -7.254218101501465
vertex -77.10414123535156 46.38735580444336 0
endloop
endfacet
facet normal -0.9733300264675495 -0.22940937116142243 0
outer loop
vertex -78.79698944091797 54.36198425292969 0
vertex -78.01956176757812 51.063541412353516 -7.009149551391602
vertex -78.01956176757812 51.063541412353516 0
endloop
endfacet
facet normal -0.9902901800295981 0.13901568018373459 0
outer loop
vertex -78.64049530029297 55.476783752441406 0
vertex -78.79698944091797 54.36198425292969 -6.836285591125488
vertex -78.79698944091797 54.36198425292969 0
endloop
endfacet
facet normal -0.798535669550394 -0.6019474931052574 0
outer loop
vertex -78.01956176757812 51.063541412353516 0
vertex -76.52076721191406 49.075260162353516 -7.113351345062256
vertex -76.52076721191406 49.075260162353516 0
endloop
endfacet
facet normal 0 0 1
outer loop
vertex -78.64049530029297 55.476783752441406 0
vertex -78.79698944091797 54.36198425292969 0
vertex -76.52076721191406 49.075260162353516 0
endloop
endfacet
facet normal 0 0 1
outer loop
vertex -78.79698944091797 54.36198425292969 0
vertex -78.01956176757812 51.063541412353516 0
vertex -76.52076721191406 49.075260162353516 0
endloop
endfacet
facet normal -0.8725531896281576 0.4885191206797627 0
outer loop
vertex -78.64049530029297 55.476783752441406 0
vertex -67.7042465209961 75.01022338867188 0
vertex -78.64049530029297 55.476783752441406 -6.777861595153809
endloop
endfacet
facet normal 0 0 1
outer loop
vertex -67.7042465209961 75.01022338867188 0
vertex -78.64049530029297 55.476783752441406 0
vertex -76.52076721191406 49.075260162353516 0
endloop
endfacet
facet normal 0 0 1
outer loop
vertex -76.52076721191406 49.075260162353516 0
vertex -77.10414123535156 46.38735580444336 0
vertex -40.964168548583984 60.09095001220703 0
endloop
endfacet
facet normal 0 0 1
outer loop
vertex -40.964168548583984 60.09095001220703 0
vertex -77.10414123535156 46.38735580444336 0
vertex -39.33949279785156 58.796546936035156 0
endloop
endfacet
facet normal -0.6019461050315715 0.7985367158980983 0
outer loop
vertex -66.69688415527344 75.76958465576172 0
vertex -67.7042465209961 75.01022338867188 -5.754157543182373
vertex -67.7042465209961 75.01022338867188 0
endloop
endfacet
facet normal -0.22940698695431347 0.9733305884110205 0
outer loop
vertex -63.3984375 76.54700469970703 0
vertex -66.69688415527344 75.76958465576172 -5.71436071395874
vertex -66.69688415527344 75.76958465576172 0
endloop
endfacet
facet normal 0.13900903386231925 0.9902911130090306 0
outer loop
vertex -62.28363800048828 76.39051818847656 0
vertex -63.3984375 76.54700469970703 -5.673617839813232
vertex -63.3984375 76.54700469970703 0
endloop
endfacet
facet normal 0.4885191933149056 0.8725531489616859 0
outer loop
vertex -42.75020217895508 65.45426940917969 0
vertex -62.28363800048828 76.39051818847656 -5.681818962097168
vertex -62.28363800048828 76.39051818847656 0
endloop
endfacet
facet normal 0 0 1
outer loop
vertex -66.69688415527344 75.76958465576172 0
vertex -67.7042465209961 75.01022338867188 0
vertex -76.52076721191406 49.075260162353516 0
endloop
endfacet
facet normal 0 0 1
outer loop
vertex -63.3984375 76.54700469970703 0
vertex -66.69688415527344 75.76958465576172 0
vertex -76.52076721191406 49.075260162353516 0
endloop
endfacet
facet normal 0 0 1
outer loop
vertex -62.28363800048828 76.39051818847656 0
vertex -63.3984375 76.54700469970703 0
vertex -76.52076721191406 49.075260162353516 0
endloop
endfacet
facet normal 0 0 1
outer loop
vertex -42.75020217895508 65.45426940917969 0
vertex -62.28363800048828 76.39051818847656 0
vertex -76.52076721191406 49.075260162353516 0
endloop
endfacet
facet normal 0 0 1
outer loop
vertex -42.75020217895508 65.45426940917969 0
vertex -76.52076721191406 49.075260162353516 0
vertex -41.990840911865234 64.4468994140625 0
endloop
endfacet
facet normal 0 0 1
outer loop
vertex -41.990840911865234 64.4468994140625 0
vertex -76.52076721191406 49.075260162353516 0
vertex -40.964168548583984 60.09095001220703 0
endloop
endfacet
facet normal 0 0 1
outer loop
vertex -65.7052001953125 -16.138795852661133 0
vertex -65.7052001953125 -29.271404266357422 0
vertex -5.874598979949951 58.59096908569336 0
endloop
endfacet
facet normal 0 0 1
outer loop
vertex -67.43155670166016 -14.38692855834961 0
vertex -65.7052001953125 -16.138795852661133 0
vertex -5.874598979949951 58.59096908569336 0
endloop
endfacet
facet normal 0 0 1
outer loop
vertex -39.33949279785156 58.796546936035156 0
vertex -67.43155670166016 -14.38692855834961 0
vertex -5.874598979949951 58.59096908569336 0
endloop
endfacet
facet normal 0 0 1
outer loop
vertex -65.70799255371094 -67.26021575927734 0
vertex -0.30341845750808716 34.94473648071289 0
vertex -2.055201530456543 36.701133728027344 0
endloop
endfacet
facet normal 0 0 1
outer loop
vertex -65.70799255371094 -67.26021575927734 0
vertex -2.055201530456543 36.701133728027344 0
vertex -2.055201530456543 54.52827072143555 0
endloop
endfacet
facet normal 0 0 1
outer loop
vertex -5.874598979949951 58.59096908569336 0
vertex -65.70799255371094 -67.26021575927734 0
vertex -4.722446441650391 58.07525634765625 0
endloop
endfacet
facet normal 0 0 1
outer loop
vertex -4.722446441650391 58.07525634765625 0
vertex -65.70799255371094 -67.26021575927734 0
vertex -2.456059694290161 55.56916046142578 0
endloop
endfacet
facet normal 0 0 1
outer loop
vertex -2.456059694290161 55.56916046142578 0
vertex -65.70799255371094 -67.26021575927734 0
vertex -2.055201530456543 54.52827072143555 0
endloop
endfacet
facet normal 0 0 1
outer loop
vertex -0.30341845750808716 34.94473648071289 0
vertex -65.70799255371094 -67.26021575927734 0
vertex 36.860267639160156 34.846981048583984 0
endloop
endfacet
facet normal 3.1147297350208855e-8 0.0523359989258669 -0.9986295325176553
outer loop
vertex -62.28363800048828 76.39051818847656 -5.681818962097168
vertex -41.990840911865234 64.4468994140625 -6.307757377624512
vertex -40.964168548583984 60.09095001220703 -6.536043167114258
endloop
endfacet
facet normal -5.362712649460023e-7 0.052335037494371066 -0.9986295829035786
outer loop
vertex -62.28363800048828 76.39051818847656 -5.681818962097168
vertex -42.75020217895508 65.45426940917969 -6.2549638748168945
vertex -41.990840911865234 64.4468994140625 -6.307757377624512
endloop
endfacet
facet normal 0.9733302609645959 0.2294083762433093 0
outer loop
vertex -41.990840911865234 64.4468994140625 -6.307757377624512
vertex -40.964168548583984 60.09095001220703 0
vertex -40.964168548583984 60.09095001220703 -6.536043167114258
endloop
endfacet
facet normal 0.7985389072458994 0.6019431979967252 0
outer loop
vertex -42.75020217895508 65.45426940917969 -6.2549638748168945
vertex -41.990840911865234 64.4468994140625 0
vertex -41.990840911865234 64.4468994140625 -6.307757377624512
endloop
endfacet
facet normal 0.48851919331490556 0.8725531489616858 0
outer loop
vertex -62.28363800048828 76.39051818847656 -5.681818962097168
vertex -42.75020217895508 65.45426940917969 0
vertex -42.75020217895508 65.45426940917969 -6.2549638748168945
endloop
endfacet
facet normal 0.6231270279324566 0.7821206473812488 0
outer loop
vertex -40.964168548583984 60.09095001220703 -6.536043167114258
vertex -39.33949279785156 58.796546936035156 0
vertex -39.33949279785156 58.796546936035156 -6.603880405426025
endloop
endfacet
facet normal 2.036160215328372e-9 0.05233588812224221 -0.9986295383246262
outer loop
vertex -39.33949279785156 58.796546936035156 -6.603880405426025
vertex -2.456059694290161 55.56916046142578 -6.773020267486572
vertex -2.055201530456543 54.52827072143555 -6.827570915222168
endloop
endfacet
facet normal 3.887321038119709e-9 0.05233552225345493 -0.9986295574989046
outer loop
vertex -39.33949279785156 58.796546936035156 -6.603880405426025
vertex -5.874598979949951 58.59096908569336 -6.614654064178467
vertex -4.722446441650391 58.07525634765625 -6.64168119430542
endloop
endfacet
facet normal 1.4499378376627427e-8 0.05233603016509152 -0.9986295308804753
outer loop
vertex -39.33949279785156 58.796546936035156 -6.603880405426025
vertex -4.722446441650391 58.07525634765625 -6.64168119430542
vertex -2.456059694290161 55.56916046142578 -6.773020267486572
endloop
endfacet
facet normal 0.006142973964527583 0.9999811317574303 0
outer loop
vertex -39.33949279785156 58.796546936035156 -6.603880405426025
vertex -5.874598979949951 58.59096908569336 0
vertex -5.874598979949951 58.59096908569336 -6.614654064178467
endloop
endfacet
facet normal 0.6231270279324566 0.7821206473812488 0
outer loop
vertex -40.964168548583984 60.09095001220703 -6.536043167114258
vertex -40.964168548583984 60.09095001220703 0
vertex -39.33949279785156 58.796546936035156 0
endloop
endfacet
facet normal 0.9733302609645959 0.2294083762433093 0
outer loop
vertex -40.964168548583984 60.09095001220703 0
vertex -41.990840911865234 64.4468994140625 -6.307757377624512
vertex -41.990840911865234 64.4468994140625 0
endloop
endfacet
facet normal 0.7985389072458995 0.6019431979967254 0
outer loop
vertex -42.75020217895508 65.45426940917969 -6.2549638748168945
vertex -42.75020217895508 65.45426940917969 0
vertex -41.990840911865234 64.4468994140625 0
endloop
endfacet
facet normal 0.006142973964527583 0.9999811317574303 0
outer loop
vertex -5.874598979949951 58.59096908569336 0
vertex -39.33949279785156 58.796546936035156 -6.603880405426025
vertex -39.33949279785156 58.796546936035156 0
endloop
endfacet
facet normal 0 0.052336133213234735 -0.9986295254799382
outer loop
vertex 34.92964553833008 -76.44477844238281 -13.691577911376953
vertex -20.740047454833984 -76.44477844238281 -13.691577911376953
vertex -22.377660751342773 -75.14652252197266 -13.623538970947266
endloop
endfacet
facet normal -5.989904507747568e-9 0.05233586953250638 -0.9986295392988715
outer loop
vertex 34.92964553833008 -76.44477844238281 -13.691577911376953
vertex -22.377660751342773 -75.14652252197266 -13.623538970947266
vertex -22.943267822265625 -72.7326431274414 -13.49703311920166
endloop
endfacet
facet normal 6.476243712431732e-8 0.052336051746083544 -0.9986295297494597
outer loop
vertex -75.1452865600586 2.2097651958465576 -9.569467544555664
vertex 36.567256927490234 -75.14652252197266 -13.623538970947266
vertex 34.92964553833008 -76.44477844238281 -13.691577911376953
endloop
endfacet
facet normal 9.287847172541696e-8 0.0523360922380812 -0.9986295276273571
outer loop
vertex -75.1452865600586 2.2097651958465576 -9.569467544555664
vertex 37.13043212890625 -72.74302673339844 -13.497576713562012
vertex 36.567256927490234 -75.14652252197266 -13.623538970947266
endloop
endfacet
facet normal -8.907896936696718e-8 0.05233582042105119 -0.9986295418726845
outer loop
vertex -75.1452865600586 2.2097651958465576 -9.569467544555664
vertex 38.76804733276367 -71.44477844238281 -13.42953872680664
vertex 37.13043212890625 -72.74302673339844 -13.497576713562012
endloop
endfacet
facet normal 0 0.05233595342201448 -0.9986295349024125
outer loop
vertex -75.94966125488281 3.611100673675537 -9.496026992797852
vertex 74.52142333984375 -71.44477844238281 -13.42953872680664
vertex 38.76804733276367 -71.44477844238281 -13.42953872680664
endloop
endfacet
facet normal 0 -1 0
outer loop
vertex -20.740047454833984 -76.44477844238281 0
vertex -20.740047454833984 -76.44477844238281 -13.691577911376953
vertex 34.92964553833008 -76.44477844238281 -13.691577911376953
endloop
endfacet
facet normal 0.6212362754350311 -0.7836233087929495 0
outer loop
vertex 36.567256927490234 -75.14652252197266 -13.623538970947266
vertex 34.92964553833008 -76.44477844238281 0
vertex 34.92964553833008 -76.44477844238281 -13.691577911376953
endloop
endfacet
facet normal 7.034692065257564e-8 0.05233604022551175 -0.9986295303532279
outer loop
vertex 75.5643310546875 -71.04216766357422 -13.408438682556152
vertex 74.52142333984375 -71.44477844238281 -13.42953872680664
vertex -78.64049530029297 55.476783752441406 -6.777861595153809
endloop
endfacet
facet normal 8.526381859335807e-8 0.05233605835684375 -0.9986295294030022
outer loop
vertex 78.07333374023438 -68.76576232910156 -13.28913688659668
vertex 75.5643310546875 -71.04216766357422 -13.408438682556152
vertex -78.64049530029297 55.476783752441406 -6.777861595153809
endloop
endfacet
facet normal -5.12657815030819e-7 0.052335306231766424 -0.9986295688198725
outer loop
vertex 78.58736419677734 -67.60743713378906 -13.228432655334473
vertex 78.07333374023438 -68.76576232910156 -13.28913688659668
vertex -78.64049530029297 55.476783752441406 -6.777861595153809
endloop
endfacet
facet normal 0.973629279999912 -0.22813597946587322 0
outer loop
vertex 37.13043212890625 -72.74302673339844 -13.497576713562012
vertex 36.567256927490234 -75.14652252197266 0
vertex 36.567256927490234 -75.14652252197266 -13.623538970947266
endloop
endfacet
facet normal 0.6212331449752629 -0.7836257905302403 0
outer loop
vertex 38.76804733276367 -71.44477844238281 -13.42953872680664
vertex 37.13043212890625 -72.74302673339844 0
vertex 37.13043212890625 -72.74302673339844 -13.497576713562012
endloop
endfacet
facet normal 0 -1 0
outer loop
vertex 74.52142333984375 -71.44477844238281 -13.42953872680664
vertex 38.76804733276367 -71.44477844238281 0
vertex 38.76804733276367 -71.44477844238281 -13.42953872680664
endloop
endfacet
facet normal 0.3601417643068029 -0.9328975879494936 0
outer loop
vertex 75.5643310546875 -71.04216766357422 -13.408438682556152
vertex 74.52142333984375 -71.44477844238281 0
vertex 74.52142333984375 -71.44477844238281 -13.42953872680664
endloop
endfacet
facet normal 0.6719442073301722 -0.7406017703431625 0
outer loop
vertex 78.07333374023438 -68.76576232910156 -13.28913688659668
vertex 75.5643310546875 -71.04216766357422 0
vertex 75.5643310546875 -71.04216766357422 -13.408438682556152
endloop
endfacet
facet normal 0.9140400545809461 -0.4056239374367112 0
outer loop
vertex 78.58736419677734 -67.60743713378906 -13.228432655334473
vertex 78.07333374023438 -68.76576232910156 0
vertex 78.07333374023438 -68.76576232910156 -13.28913688659668
endloop
endfacet
facet normal 0.9999990713060245 -0.0013628598931868725 0
outer loop
vertex 78.58736419677734 -67.60743713378906 0
vertex 78.58736419677734 -67.60743713378906 -13.228432655334473
vertex 78.695556640625 11.778818130493164 -9.067975044250488
endloop
endfacet
facet normal 2.2688137176955032e-7 0.05233606124216569 -0.9986295292517665
outer loop
vertex 42.44584274291992 15.943347930908203 -8.84972095489502
vertex 78.58736419677734 -67.60743713378906 -13.228432655334473
vertex 40.69479751586914 17.699617385864258 -8.757678985595703
endloop
endfacet
facet normal -8.724564301868029e-9 0.05233595960537812 -0.9986295345783561
outer loop
vertex 42.44584274291992 15.943347930908203 -8.84972095489502
vertex 78.695556640625 11.778818130493164 -9.067975044250488
vertex 78.58736419677734 -67.60743713378906 -13.228432655334473
endloop
endfacet
facet normal -2.393662228333078e-9 0.052335959679369624 -0.9986295345744785
outer loop
vertex 78.58736419677734 -67.60743713378906 -13.228432655334473
vertex -0.30341845750808716 34.94473648071289 -7.85390043258667
vertex 40.69479751586914 17.699617385864258 -8.757678985595703
endloop
endfacet
facet normal 0 -1 0
outer loop
vertex -20.740047454833984 -76.44477844238281 0
vertex 34.92964553833008 -76.44477844238281 -13.691577911376953
vertex 34.92964553833008 -76.44477844238281 0
endloop
endfacet
facet normal 0 0 1
outer loop
vertex -22.377660751342773 -75.14652252197266 0
vertex -20.740047454833984 -76.44477844238281 0
vertex 34.92964553833008 -76.44477844238281 0
endloop
endfacet
facet normal 0 0 1
outer loop
vertex -22.943267822265625 -72.7326431274414 0
vertex -22.377660751342773 -75.14652252197266 0
vertex 34.92964553833008 -76.44477844238281 0
endloop
endfacet
facet normal 0 0 1
outer loop
vertex -24.57569122314453 -71.43499755859375 0
vertex -22.943267822265625 -72.7326431274414 0
vertex 37.13043212890625 -72.74302673339844 0
endloop
endfacet
facet normal 0 0 1
outer loop
vertex -22.943267822265625 -72.7326431274414 0
vertex 34.92964553833008 -76.44477844238281 0
vertex 36.567256927490234 -75.14652252197266 0
endloop
endfacet
facet normal 0 0 1
outer loop
vertex 37.13043212890625 -72.74302673339844 0
vertex -22.943267822265625 -72.7326431274414 0
vertex 36.567256927490234 -75.14652252197266 0
endloop
endfacet
facet normal 0 0 1
outer loop
vertex -24.57569122314453 -71.43499755859375 0
vertex 37.13043212890625 -72.74302673339844 0
vertex 38.76804733276367 -71.44477844238281 0
endloop
endfacet
facet normal 0 0 1
outer loop
vertex -24.57569122314453 -71.43499755859375 0
vertex 38.76804733276367 -71.44477844238281 0
vertex 78.695556640625 11.778818130493164 0
endloop
endfacet
facet normal 0 0 1
outer loop
vertex -65.70799255371094 -67.26021575927734 0
vertex 40.69479751586914 17.699617385864258 0
vertex 40.69479751586914 30.781850814819336 0
endloop
endfacet
facet normal 0 0 1
outer loop
vertex -65.70799255371094 -67.26021575927734 0
vertex 40.29219055175781 31.824758529663086 0
vertex 38.016448974609375 34.3330192565918 0
endloop
endfacet
facet normal 0 0 1
outer loop
vertex 40.29219055175781 31.824758529663086 0
vertex -65.70799255371094 -67.26021575927734 0
vertex 40.69479751586914 30.781850814819336 0
endloop
endfacet
facet normal 0 0 1
outer loop
vertex 40.69479751586914 17.699617385864258 0
vertex -24.57569122314453 -71.43499755859375 0
vertex 42.44584274291992 15.943347930908203 0
endloop
endfacet
facet normal 0 0 1
outer loop
vertex 42.44584274291992 15.943347930908203 0
vertex -24.57569122314453 -71.43499755859375 0
vertex 74.86103820800781 15.846756935119629 0
endloop
endfacet
facet normal 0.621236275435031 -0.7836233087929494 0
outer loop
vertex 34.92964553833008 -76.44477844238281 0
vertex 36.567256927490234 -75.14652252197266 -13.623538970947266
vertex 36.567256927490234 -75.14652252197266 0
endloop
endfacet
facet normal 0.9736292799999118 -0.22813597946587316 0
outer loop
vertex 37.13043212890625 -72.74302673339844 -13.497576713562012
vertex 37.13043212890625 -72.74302673339844 0
vertex 36.567256927490234 -75.14652252197266 0
endloop
endfacet
facet normal 0.6212331449752629 -0.7836257905302403 0
outer loop
vertex 37.13043212890625 -72.74302673339844 0
vertex 38.76804733276367 -71.44477844238281 -13.42953872680664
vertex 38.76804733276367 -71.44477844238281 0
endloop
endfacet
facet normal 0 -1 0
outer loop
vertex 74.52142333984375 -71.44477844238281 -13.42953872680664
vertex 74.52142333984375 -71.44477844238281 0
vertex 38.76804733276367 -71.44477844238281 0
endloop
endfacet
facet normal 0.3601417643068029 -0.9328975879494936 0
outer loop
vertex 75.5643310546875 -71.04216766357422 -13.408438682556152
vertex 75.5643310546875 -71.04216766357422 0
vertex 74.52142333984375 -71.44477844238281 0
endloop
endfacet
facet normal 0.6719442073301722 -0.7406017703431625 0
outer loop
vertex 75.5643310546875 -71.04216766357422 0
vertex 78.07333374023438 -68.76576232910156 -13.28913688659668
vertex 78.07333374023438 -68.76576232910156 0
endloop
endfacet
facet normal 0.9140400545809462 -0.4056239374367112 0
outer loop
vertex 78.58736419677734 -67.60743713378906 -13.228432655334473
vertex 78.58736419677734 -67.60743713378906 0
vertex 78.07333374023438 -68.76576232910156 0
endloop
endfacet
facet normal 0 0 1
outer loop
vertex 78.695556640625 11.778818130493164 0
vertex 38.76804733276367 -71.44477844238281 0
vertex 74.52142333984375 -71.44477844238281 0
endloop
endfacet
facet normal 0 0 1
outer loop
vertex 78.695556640625 11.778818130493164 0
vertex 74.52142333984375 -71.44477844238281 0
vertex 75.5643310546875 -71.04216766357422 0
endloop
endfacet
facet normal 0 0 1
outer loop
vertex 78.695556640625 11.778818130493164 0
vertex 75.5643310546875 -71.04216766357422 0
vertex 78.07333374023438 -68.76576232910156 0
endloop
endfacet
facet normal 0 0 1
outer loop
vertex 78.695556640625 11.778818130493164 0
vertex 78.07333374023438 -68.76576232910156 0
vertex 78.58736419677734 -67.60743713378906 0
endloop
endfacet
facet normal 0 0 1
outer loop
vertex -24.57569122314453 -71.43499755859375 0
vertex 78.29290008544922 12.823975563049316 0
vertex 76.01663208007812 15.332818031311035 0
endloop
endfacet
facet normal 0 0 1
outer loop
vertex 78.29290008544922 12.823975563049316 0
vertex -24.57569122314453 -71.43499755859375 0
vertex 78.695556640625 11.778818130493164 0
endloop
endfacet
facet normal 0 0 1
outer loop
vertex 74.86103820800781 15.846756935119629 0
vertex -24.57569122314453 -71.43499755859375 0
vertex 76.01663208007812 15.332818031311035 0
endloop
endfacet
facet normal 0.9999990713060245 -0.0013628598931868722 0
outer loop
vertex 78.58736419677734 -67.60743713378906 0
vertex 78.695556640625 11.778818130493164 -9.067975044250488
vertex 78.695556640625 11.778818130493164 0
endloop
endfacet
facet normal -0.0000010679524321791246 0.052334963840134016 -0.9986295867631356
outer loop
vertex 78.58736419677734 -67.60743713378906 -13.228432655334473
vertex -40.964168548583984 60.09095001220703 -6.536043167114258
vertex -39.33949279785156 58.796546936035156 -6.603880405426025
endloop
endfacet
facet normal 1.0965325997882759e-8 0.05233596764463636 -0.9986295341570364
outer loop
vertex 78.58736419677734 -67.60743713378906 -13.228432655334473
vertex -39.33949279785156 58.796546936035156 -6.603880405426025
vertex -2.055201530456543 36.701133728027344 -7.761851787567139
endloop
endfacet
facet normal 6.070832403404543e-7 0.05233642725023644 -0.9986295100698318
outer loop
vertex 78.58736419677734 -67.60743713378906 -13.228432655334473
vertex -2.055201530456543 36.701133728027344 -7.761851787567139
vertex -0.30341845750808716 34.94473648071289 -7.85390043258667
endloop
endfacet
facet normal -4.83509047254201e-9 0.05233595389106289 -0.9986295348778307
outer loop
vertex -0.30341845750808716 34.94473648071289 -7.85390043258667
vertex 40.69479751586914 30.781850814819336 -8.072068214416504
vertex 40.69479751586914 17.699617385864258 -8.757678985595703
endloop
endfacet
facet normal 4.6328867338056664e-8 0.05233645639956462 -0.9986295085423494
outer loop
vertex -0.30341845750808716 34.94473648071289 -7.85390043258667
vertex 40.29219055175781 31.824758529663086 -8.017411231994629
vertex 40.69479751586914 30.781850814819336 -8.072068214416504
endloop
endfacet
facet normal -1.2036452470357573e-9 0.052335839624058286 -0.9986295408663038
outer loop
vertex -0.30341845750808716 34.94473648071289 -7.85390043258667
vertex 38.016448974609375 34.3330192565918 -7.885959148406982
vertex 40.29219055175781 31.824758529663086 -8.017411231994629
endloop
endfacet
facet normal 8.418700836820221e-11 0.05233592007690257 -0.9986295366499552
outer loop
vertex -0.30341845750808716 34.94473648071289 -7.85390043258667
vertex 36.860267639160156 34.846981048583984 -7.859023571014404
vertex 38.016448974609375 34.3330192565918 -7.885959148406982
endloop
endfacet
facet normal -2.0522922274128138e-8 0.05233585718909984 -0.9986295399457609
outer loop
vertex 42.44584274291992 15.943347930908203 -8.84972095489502
vertex 78.29290008544922 12.823975563049316 -9.013200759887695
vertex 78.695556640625 11.778818130493164 -9.067975044250488
endloop
endfacet
facet normal 1.8297449504789633e-9 0.052336400378981365 -0.9986295114782914
outer loop
vertex 42.44584274291992 15.943347930908203 -8.84972095489502
vertex 74.86103820800781 15.846756935119629 -8.854783058166504
vertex 76.01663208007812 15.332818031311035 -8.881717681884766
endloop
endfacet
facet normal -4.787414985855724e-9 0.052336037522365736 -0.9986295304948966
outer loop
vertex 42.44584274291992 15.943347930908203 -8.84972095489502
vertex 76.01663208007812 15.332818031311035 -8.881717681884766
vertex 78.29290008544922 12.823975563049316 -9.013200759887695
endloop
endfacet
facet normal 0.7080361990630022 0.706176140078675 0
outer loop
vertex -2.055201530456543 36.701133728027344 -7.761851787567139
vertex -0.30341845750808716 34.94473648071289 0
vertex -0.30341845750808716 34.94473648071289 -7.85390043258667
endloop
endfacet
facet normal 0.0026303928434538285 0.9999965405107605 0
outer loop
vertex -0.30341845750808716 34.94473648071289 -7.85390043258667
vertex 36.860267639160156 34.846981048583984 0
vertex 36.860267639160156 34.846981048583984 -7.859023571014404
endloop
endfacet
facet normal 0 0 1
outer loop
vertex 36.860267639160156 34.846981048583984 0
vertex -65.70799255371094 -67.26021575927734 0
vertex 38.016448974609375 34.3330192565918 0
endloop
endfacet
facet normal 0.7080361990630023 0.7061761400786751 0
outer loop
vertex -0.30341845750808716 34.94473648071289 0
vertex -2.055201530456543 36.701133728027344 -7.761851787567139
vertex -2.055201530456543 36.701133728027344 0
endloop
endfacet
facet normal 0.0026303928434538285 0.9999965405107606 0
outer loop
vertex 36.860267639160156 34.846981048583984 0
vertex -0.30341845750808716 34.94473648071289 -7.85390043258667
vertex -0.30341845750808716 34.94473648071289 0
endloop
endfacet
facet normal 1 0 0
outer loop
vertex -2.055201530456543 54.52827072143555 -6.827570915222168
vertex -2.055201530456543 36.701133728027344 0
vertex -2.055201530456543 36.701133728027344 -7.761851787567139
endloop
endfacet
facet normal 0.7416879077447999 0.6707451434823373 0
outer loop
vertex -4.722446441650391 58.07525634765625 -6.64168119430542
vertex -2.456059694290161 55.56916046142578 0
vertex -2.456059694290161 55.56916046142578 -6.773020267486572
endloop
endfacet
facet normal 0.933190534092792 0.3593820071728823 0
outer loop
vertex -2.456059694290161 55.56916046142578 -6.773020267486572
vertex -2.055201530456543 54.52827072143555 0
vertex -2.055201530456543 54.52827072143555 -6.827570915222168
endloop
endfacet
facet normal 0.4085482874618553 0.9127367072776162 0
outer loop
vertex -5.874598979949951 58.59096908569336 -6.614654064178467
vertex -4.722446441650391 58.07525634765625 0
vertex -4.722446441650391 58.07525634765625 -6.64168119430542
endloop
endfacet
facet normal 0.7416879077447999 0.6707451434823373 0
outer loop
vertex -2.456059694290161 55.56916046142578 0
vertex -4.722446441650391 58.07525634765625 -6.64168119430542
vertex -4.722446441650391 58.07525634765625 0
endloop
endfacet
facet normal 0.9331905340927921 0.3593820071728824 0
outer loop
vertex -2.456059694290161 55.56916046142578 -6.773020267486572
vertex -2.456059694290161 55.56916046142578 0
vertex -2.055201530456543 54.52827072143555 0
endloop
endfacet
facet normal 1 0 0
outer loop
vertex -2.055201530456543 36.701133728027344 0
vertex -2.055201530456543 54.52827072143555 -6.827570915222168
vertex -2.055201530456543 54.52827072143555 0
endloop
endfacet
facet normal 0.40854828746185534 0.9127367072776165 0
outer loop
vertex -5.874598979949951 58.59096908569336 -6.614654064178467
vertex -5.874598979949951 58.59096908569336 0
vertex -4.722446441650391 58.07525634765625 0
endloop
endfacet
facet normal 0.7081592478183509 0.7060527457133408 0
outer loop
vertex 40.69479751586914 17.699617385864258 -8.757678985595703
vertex 42.44584274291992 15.943347930908203 0
vertex 42.44584274291992 15.943347930908203 -8.84972095489502
endloop
endfacet
facet normal 1 0 0
outer loop
vertex 40.69479751586914 30.781850814819336 -8.072068214416504
vertex 40.69479751586914 17.699617385864258 0
vertex 40.69479751586914 17.699617385864258 -8.757678985595703
endloop
endfacet
facet normal 0.9328987343975154 0.3601387945771938 0
outer loop
vertex 40.29219055175781 31.824758529663086 -8.017411231994629
vertex 40.69479751586914 30.781850814819336 0
vertex 40.69479751586914 30.781850814819336 -8.072068214416504
endloop
endfacet
facet normal 0.7406003865033436 0.6719457325640948 0
outer loop
vertex 38.016448974609375 34.3330192565918 -7.885959148406982
vertex 40.29219055175781 31.824758529663086 0
vertex 40.29219055175781 31.824758529663086 -8.017411231994629
endloop
endfacet
facet normal 0.40620672030996763 0.9137812103425085 0
outer loop
vertex 36.860267639160156 34.846981048583984 -7.859023571014404
vertex 38.016448974609375 34.3330192565918 0
vertex 38.016448974609375 34.3330192565918 -7.885959148406982
endloop
endfacet
facet normal 0.0029797928279637937 0.9999955604074962 0
outer loop
vertex 42.44584274291992 15.943347930908203 -8.84972095489502
vertex 74.86103820800781 15.846756935119629 0
vertex 74.86103820800781 15.846756935119629 -8.854783058166504
endloop
endfacet
facet normal 0.9331441580623414 0.3595024064928134 0
outer loop
vertex 78.695556640625 11.778818130493164 0
vertex 78.695556640625 11.778818130493164 -9.067975044250488
vertex 78.29290008544922 12.823975563049316 -9.013200759887695
endloop
endfacet
facet normal 0.7406005899490989 0.6719455083316255 0
outer loop
vertex 76.01663208007812 15.332818031311035 -8.881717681884766
vertex 78.29290008544922 12.823975563049316 0
vertex 78.29290008544922 12.823975563049316 -9.013200759887695
endloop
endfacet
facet normal 0.4063640176074112 0.9137112701471749 0
outer loop
vertex 74.86103820800781 15.846756935119629 -8.854783058166504
vertex 76.01663208007812 15.332818031311035 0
vertex 76.01663208007812 15.332818031311035 -8.881717681884766
endloop
endfacet
facet normal 0.7081592478183509 0.7060527457133408 0
outer loop
vertex 42.44584274291992 15.943347930908203 0
vertex 40.69479751586914 17.699617385864258 -8.757678985595703
vertex 40.69479751586914 17.699617385864258 0
endloop
endfacet
facet normal 0.0029797928279637937 0.9999955604074963 0
outer loop
vertex 74.86103820800781 15.846756935119629 0
vertex 42.44584274291992 15.943347930908203 -8.84972095489502
vertex 42.44584274291992 15.943347930908203 0
endloop
endfacet
facet normal 1 0 0
outer loop
vertex 40.69479751586914 17.699617385864258 0
vertex 40.69479751586914 30.781850814819336 -8.072068214416504
vertex 40.69479751586914 30.781850814819336 0
endloop
endfacet
facet normal 0.7406003865033437 0.6719457325640948 0
outer loop
vertex 40.29219055175781 31.824758529663086 0
vertex 38.016448974609375 34.3330192565918 -7.885959148406982
vertex 38.016448974609375 34.3330192565918 0
endloop
endfacet
facet normal 0.9328987343975154 0.3601387945771938 0
outer loop
vertex 40.29219055175781 31.824758529663086 -8.017411231994629
vertex 40.29219055175781 31.824758529663086 0
vertex 40.69479751586914 30.781850814819336 0
endloop
endfacet
facet normal 0.40620672030996763 0.9137812103425085 0
outer loop
vertex 36.860267639160156 34.846981048583984 -7.859023571014404
vertex 36.860267639160156 34.846981048583984 0
vertex 38.016448974609375 34.3330192565918 0
endloop
endfacet
facet normal 0.9331441580623414 0.3595024064928134 0
outer loop
vertex 78.29290008544922 12.823975563049316 -9.013200759887695
vertex 78.29290008544922 12.823975563049316 0
vertex 78.695556640625 11.778818130493164 0
endloop
endfacet
facet normal 0.40636401760741114 0.9137112701471749 0
outer loop
vertex 74.86103820800781 15.846756935119629 -8.854783058166504
vertex 74.86103820800781 15.846756935119629 0
vertex 76.01663208007812 15.332818031311035 0
endloop
endfacet
facet normal 0.7406005899490989 0.6719455083316256 0
outer loop
vertex 78.29290008544922 12.823975563049316 0
vertex 76.01663208007812 15.332818031311035 -8.881717681884766
vertex 76.01663208007812 15.332818031311035 0
endloop
endfacet
endsolid auto-kdk-case
